<?xml version="1.0" encoding="UTF-8" standalone="no"?>
<!-- Created with Inkscape (http://www.inkscape.org/) -->

<svg
   xmlns:dc="http://purl.org/dc/elements/1.1/"
   xmlns:cc="http://creativecommons.org/ns#"
   xmlns:rdf="http://www.w3.org/1999/02/22-rdf-syntax-ns#"
   xmlns:svg="http://www.w3.org/2000/svg"
   xmlns="http://www.w3.org/2000/svg"
   xmlns:sodipodi="http://sodipodi.sourceforge.net/DTD/sodipodi-0.dtd"
   xmlns:inkscape="http://www.inkscape.org/namespaces/inkscape"
   width="540"
   height="540"
   id="svg2"
   version="1.1"
   inkscape:version="0.48.3.1 r9886"
   sodipodi:docname="frontant_spline.svg">
  <defs
     id="defs4" />
  <sodipodi:namedview
     id="base"
     pagecolor="#ffffff"
     bordercolor="#666666"
     borderopacity="1.0"
     inkscape:pageopacity="0.0"
     inkscape:pageshadow="2"
     inkscape:zoom="0.7"
     inkscape:cx="290.71429"
     inkscape:cy="235.01998"
     inkscape:document-units="px"
     inkscape:current-layer="g3129"
     showgrid="false"
     inkscape:window-width="1366"
     inkscape:window-height="719"
     inkscape:window-x="0"
     inkscape:window-y="29"
     inkscape:window-maximized="1"
     units="px"
     showguides="true"
     inkscape:guide-bbox="true" />
  <metadata
     id="metadata7">
    <rdf:RDF>
      <cc:Work
         rdf:about="">
        <dc:format>image/svg+xml</dc:format>
        <dc:type
           rdf:resource="http://purl.org/dc/dcmitype/StillImage" />
        <dc:title />
      </cc:Work>
    </rdf:RDF>
  </metadata>
  <g
     inkscape:label="Layer 1"
     inkscape:groupmode="layer"
     id="layer1"
     transform="translate(0,-512.3598)">
    <path
       sodipodi:type="arc"
       style="fill:#000000"
       id="path2987"
       sodipodi:cx="278.57144"
       sodipodi:cy="446.64789"
       sodipodi:rx="54.285713"
       sodipodi:ry="44.285713"
       d="m 332.85715,446.64789 a 54.285713,44.285713 0 1 1 -108.57142,0 54.285713,44.285713 0 1 1 108.57142,0 z"
       transform="matrix(0.91377748,0,0,0.8846659,-103.82773,317.78173)" />
    <path
       sodipodi:type="arc"
       style="fill:#000000"
       id="path2989"
       sodipodi:cx="392.85715"
       sodipodi:cy="491.64789"
       sodipodi:rx="68.571426"
       sodipodi:ry="53.57143"
       d="m 461.42857,491.64789 a 68.571426,53.57143 0 1 1 -137.14285,0 68.571426,53.57143 0 1 1 137.14285,0 z"
       transform="matrix(1.1517404,0,0,0.8846659,-182.67061,319.95221)" />
    <path
       sodipodi:type="arc"
       style="fill:#000000"
       id="path2993"
       sodipodi:cx="552.85712"
       sodipodi:cy="551.64789"
       sodipodi:rx="95.714287"
       sodipodi:ry="62.142857"
       d="m 648.5714,551.64789 a 95.714287,62.142857 0 1 1 -191.42857,0 95.714287,62.142857 0 1 1 191.42857,0 z"
       transform="matrix(0.91377748,0,0,0.8846659,-72.042674,298.49508)" />
    <path
       style="fill:#000000"
       id="path2999"
       d="m 188.55779,766.9596 c -4.6743,1.79499 -11.91204,3.85225 -16.61029,5.53652 -3.78371,1.51876 -7.6196,3.03246 -11.20322,5.19344 -2.32432,1.40162 -4.58024,2.95839 -6.87529,4.42677 -6.30164,4.28817 -12.67004,8.33016 -19.33308,11.74943 -4.13582,1.86954 -6.03164,2.03161 -10.05018,4.27172 l -10.04257,-11.19087 7.61519,-3.798 c 4.05627,-2.01923 9.98345,-3.49998 14.07628,-5.39299 6.60025,-3.33202 12.91604,-7.316 19.15877,-11.5184 0.22547,-0.14948 6.59091,-4.37632 7.00627,-4.6261 3.6491,-2.19444 7.56242,-3.74563 11.42391,-5.24229 4.75925,-1.71605 7.75326,-2.60573 12.41734,-4.71176 z"
       inkscape:connector-curvature="0"
       sodipodi:nodetypes="ccscccccccsccc" />
    <path
       inkscape:connector-curvature="0"
       d="m 201.14282,785.72038 c -4.02108,3.69568 -11.80727,8.57296 -15.91034,12.18402 -3.22127,3.04833 -6.50028,6.11624 -9.18131,9.62728 -1.73891,2.27726 -3.32609,4.65709 -4.99989,6.97856 -4.46459,6.59556 -9.12576,13.00918 -14.4171,19.02032 -3.4138,3.51287 -7.02981,6.83633 -10.12999,10.61535 l -11.90618,-9.016 3.2307,-4.46823 c 3.25312,-3.6056 8.89153,-8.26275 12.2479,-11.77615 5.26964,-5.90698 9.90492,-12.24636 14.35115,-18.74081 0.16177,-0.23259 4.72517,-6.80446 5.03626,-7.21081 2.73312,-3.56998 6.07477,-6.70582 9.38956,-9.77076 4.15126,-3.66651 8.67089,-5.40375 12.52194,-9.3633 z"
       id="path3001"
       style="fill:#000000"
       sodipodi:nodetypes="ccscccccccsccc" />
    <path
       inkscape:connector-curvature="0"
       d="m 140.99202,855.16961 c -0.98328,5.04347 -0.0762,0.43835 -1.15963,5.45961 -0.7438,4.10891 -1.51847,8.26406 -1.65013,12.44531 -0.0853,2.71197 -0.0125,5.42282 -0.03,8.13447 0.15549,7.54825 0.0814,15.05958 -0.63795,22.59382 -0.64696,4.57525 -1.53116,9.11073 -1.82399,13.72602 l -12.20464,-8.08074 0,0 c 0.48738,-4.56166 1.47376,-9.03714 2.07999,-13.58202 0.75624,-7.4412 0.8492,-14.88061 0.73137,-22.33998 -0.003,-0.26849 -0.0765,-7.85118 -0.0607,-8.33552 0.13884,-4.25524 0.92367,-8.49705 1.72501,-12.66906 1.0896,-5.09042 3.37733,-7.27502 4.10878,-12.43372 l 11.2294,8.26775 z"
       id="path3005"
       style="fill:#000000"
       sodipodi:nodetypes="ccccccccccscccc" />
    <path
       style="fill:#000000"
       id="path3007"
       d="m 121.23983,800.52966 c -2.10132,4.80069 -5.76012,8.85132 -7.95428,13.60939 -1.65594,3.92286 -3.35254,7.88524 -4.42648,12.00549 -0.69655,2.67239 -1.2382,5.37617 -1.86822,8.0622 -1.55443,7.5188 -3.3249,14.95388 -5.73136,22.27924 -1.66673,4.40526 -3.55634,8.72241 -4.88596,13.24009 l -10.103131,-10.51981 0,0 c 1.50766,-4.42454 3.483603,-8.66119 5.103648,-13.04473 2.421437,-7.22549 4.194123,-14.58535 5.765293,-22.00827 0.0584,-0.26681 1.70015,-7.80304 1.8251,-8.28019 1.09771,-4.19217 2.82381,-8.23844 4.55028,-12.21207 2.21586,-4.82541 5.05162,-7.85298 6.93284,-12.81963 z"
       inkscape:connector-curvature="0"
       inkscape:transform-center-x="-9.7904747"
       sodipodi:nodetypes="ccsccccccccccc" />
    <path
       inkscape:connector-curvature="0"
       d="m 330.75095,792.54935 c 2.96406,5.02418 8.05096,13.93726 10.91604,19.01043 2.46192,4.05419 4.93303,8.16934 7.9526,11.8691 1.9585,2.39966 4.04632,4.69065 6.06051,7.04373 5.7745,6.41132 11.33258,12.94707 16.37696,19.9421 2.89042,4.39087 6.04548,10.64671 9.25716,14.831 l -15.75771,1.17647 -1.79492,-3.9494 c -3.01154,-4.27047 -4.56908,-6.43671 -7.4703,-10.77364 -4.94445,-6.93977 -10.43318,-13.4263 -16.11021,-19.78653 -0.20285,-0.23019 -5.93612,-6.72668 -6.28543,-7.15563 -3.069,-3.76856 -5.5966,-7.96544 -8.05837,-12.11329 -2.91173,-5.13712 -3.65132,-8.12489 -6.90871,-13.07706 z"
       id="path3009"
       style="fill:#000000"
       sodipodi:nodetypes="ccsccccccccccc" />
    <path
       style="fill:#000000"
       id="path3011"
       d="m 310.29615,801.96112 c 1.52943,5.59328 5.39456,13.96516 6.81534,19.58111 1.30192,4.53087 2.59651,9.12292 4.53148,13.45016 1.25504,2.80666 2.66391,5.54048 3.98513,8.31598 3.87677,7.63361 7.51133,15.33359 10.52747,23.34945 1.62654,4.96293 3.00196,9.99281 4.99385,14.83611 l -15.8974,-2.71589 0,0 c -1.77558,-4.87674 -3.02168,-9.89168 -4.67299,-14.80517 -2.93425,-7.93758 -6.51487,-15.57272 -10.31103,-23.13269 -0.13486,-0.27296 -3.94915,-7.97863 -4.17273,-8.48013 -1.96447,-4.40604 -3.29195,-9.09114 -4.56883,-13.71248 -1.44886,-5.68938 -3.25757,-8.49297 -5.08961,-14.08971 z"
       inkscape:connector-curvature="0"
       inkscape:transform-center-x="-22.154376"
       sodipodi:nodetypes="ccsccccccccccc" />
    <path
       style="fill:#000000"
       id="path3013"
       d="m 380.62826,870.15756 c -1.78772,4.83191 -7.01641,16.07116 -8.8994,20.86592 -1.39988,3.94525 -2.83775,7.93147 -3.64476,12.04104 -0.52343,2.66549 -0.89042,5.35388 -1.34663,8.02936 -1.06859,7.47855 -2.35789,14.88579 -4.28827,22.21772 -1.37975,4.4205 -2.98736,8.76572 -4.02384,13.27953 l -10.7454,-9.83303 0,0 c 1.21994,-4.43129 2.91876,-8.70176 4.25336,-13.09846 1.95171,-7.23444 3.24803,-14.56777 4.33943,-21.9528 0.0411,-0.26554 1.19568,-7.76573 1.28972,-8.24169 0.8261,-4.18156 2.28802,-8.25184 3.75495,-12.25065 1.90033,-4.86214 2.86513,-5.92468 4.4228,-10.90861 z"
       inkscape:connector-curvature="0"
       inkscape:transform-center-x="-22.191736"
       sodipodi:nodetypes="ccsccccccccccc" />
    <path
       inkscape:transform-center-x="-22.191742"
       inkscape:connector-curvature="0"
       d="m 340.82132,886.49139 c -1.78773,4.8319 -6.20053,17.17699 -8.08354,21.97175 -1.39987,3.94524 -2.83773,7.93146 -3.64476,12.04105 -0.52342,2.66547 -0.8904,5.35388 -1.34662,8.02936 -1.06858,7.47854 -2.35789,14.88577 -4.28827,22.21771 -1.37975,4.4205 -2.98736,8.76572 -4.02384,13.27952 l -10.74539,-9.83301 0,0 c 1.21994,-4.4313 2.91875,-8.70176 4.25336,-13.09846 1.9517,-7.23444 3.24803,-14.56778 4.33942,-21.95281 0.0411,-0.26553 1.19567,-7.76572 1.28972,-8.24169 0.8261,-4.18156 2.28801,-8.25184 3.75495,-12.25065 1.90033,-4.86214 1.88608,-10.19003 3.44376,-15.17395 z"
       id="path3015"
       style="fill:#000000"
       sodipodi:nodetypes="ccsccccccccccc" />
    <path
       inkscape:transform-center-x="-17.640998"
       inkscape:connector-curvature="0"
       d="m 246.19037,806.26985 c -2.25078,4.90627 -3.52251,10.67251 -5.87421,15.53749 -1.77292,4.00793 -3.58969,8.05669 -4.73028,12.25289 -0.73978,2.72169 -1.31139,5.47204 -1.97894,8.20619 -1.64185,7.64928 -3.51843,15.21808 -6.08539,22.6885 -1.78178,4.49691 -3.80582,8.909 -5.22136,13.51303 l -13.85943,-3.88429 4.91842,-9.47584 c 1.60917,-4.51326 1.65041,-5.94118 3.38171,-10.41511 2.58377,-7.36952 4.46323,-14.86217 6.12376,-22.41464 0.0617,-0.27153 1.79821,-7.94023 1.93094,-8.42619 1.16594,-4.26956 3.01421,-8.40392 4.86331,-12.46469 2.37486,-4.93364 0.8981,-4.32312 2.90922,-9.39312 z"
       id="path3017"
       style="fill:#000000"
       inkscape:transform-center-y="11.802405"
       sodipodi:nodetypes="ccsccccccccccc" />
    <path
       inkscape:transform-center-y="7.7295064"
       style="fill:#000000"
       id="path3019"
       d="m 264.81242,808.4566 c -1.21133,5.23875 -4.11925,15.75935 -5.43791,20.97682 -0.92506,4.26703 -1.88485,8.58244 -2.1517,12.91382 -0.17308,2.80935 -0.17544,5.61481 -0.27516,8.42265 -0.0577,7.8125 -0.36178,15.59072 -1.36279,23.40379 -0.83454,4.74817 -0.56663,8.05672 -1.02032,12.84026 l -14.32597,-2.98582 0.20135,-6.41892 c 0.66196,-4.73137 1.70224,-6.73124 2.49193,-11.44728 1.03798,-7.71733 1.36038,-15.42144 1.45599,-23.14256 0.006,-0.27796 0.15192,-8.12751 0.18345,-8.62925 0.27684,-4.40811 1.25012,-8.81344 2.23917,-13.14677 1.32744,-5.28919 1.95577,-8.71605 2.89888,-14.06975 z"
       inkscape:connector-curvature="0"
       inkscape:transform-center-x="-19.282311"
       sodipodi:nodetypes="ccsccccccccccc" />
    <path
       style="fill:#000000"
       id="path3021"
       d="m 220.82091,883.69419 c 0.50094,5.10957 0.0764,9.20218 0.47476,14.31729 0.46316,4.14736 0.90989,8.34745 1.98187,12.39986 0.6953,2.62839 1.54228,5.21322 2.30281,7.82304 2.31293,7.21003 4.39476,14.44625 5.86314,21.87788 0.68985,4.56936 1.14038,9.16426 2.18193,13.67697 l -14.0415,-4.48453 0,0 c -0.83926,-4.51344 -1.17442,-9.07815 -1.89469,-13.60741 -1.40633,-7.35212 -3.44937,-14.52433 -5.70064,-21.65909 -0.0792,-0.25731 -2.32384,-7.52229 -2.44747,-7.99187 -1.08627,-4.12542 -1.54811,-8.41149 -1.97405,-12.63493 -0.41226,-5.18323 -1.02628,-7.77035 -0.49679,-13.08093 z"
       inkscape:connector-curvature="0"
       sodipodi:nodetypes="ccsccccccccccc" />
    <path
       inkscape:connector-curvature="0"
       d="m 253.88357,891.86036 c 0.50093,5.10956 0.62768,9.88267 1.02606,14.99777 0.46317,4.14738 0.90989,8.34746 1.98187,12.39986 0.6953,2.6284 1.54228,5.21322 2.30282,7.82304 2.31292,7.21004 4.39475,14.44627 5.86314,21.87789 0.68984,4.56936 1.14037,9.16426 2.18192,13.67697 l -14.0415,-4.48453 0,0 c -0.83926,-4.51344 -1.17442,-9.07815 -1.89468,-13.60741 -1.40634,-7.35213 -3.44938,-14.52433 -5.70064,-21.65909 -0.0792,-0.25731 -2.32384,-7.52229 -2.44747,-7.99186 -1.08628,-4.12543 -1.54812,-8.4115 -1.97405,-12.63494 -0.41227,-5.18323 -1.60899,-7.17911 -1.1157,-12.66683 z"
       id="path3023"
       style="fill:#000000"
       sodipodi:nodetypes="ccsccccccccccc" />
    <path
       style="fill:#000000"
       id="path3025"
       d="m 116.51206,679.22682 c -2.11173,-2.62931 -6.73122,-7.03095 -8.91936,-9.61545 -1.67341,-2.16033 -3.38414,-4.33779 -4.574,-6.73501 -0.77173,-1.55482 -1.41337,-3.15933 -2.12921,-4.73563 -1.82542,-4.45262 -3.82961,-8.81072 -6.36927,-12.97693 -1.714616,-2.46315 -5.108404,-4.4173 -13.269368,-5.78547 l 2.702515,12.19751 0.883778,-0.45603 c 1.580159,2.50597 0.258947,0.0158 1.932292,2.47418 2.545803,4.10022 4.546902,8.41036 6.380214,12.79916 0.06753,0.15737 1.968619,4.60422 2.106919,4.88173 1.21489,2.43808 2.95637,4.66287 4.69333,6.84169 2.21113,2.62288 5.31887,6.0511 7.25379,8.82772 z"
       inkscape:connector-curvature="0"
       sodipodi:nodetypes="ccsccccccccccc" />
    <path
       style="fill:#000000"
       id="path3033"
       d="m 117.32844,752.28041 c -1.90724,2.51504 -1.02502,3.20749 -2.11501,6.11476 -1.19071,2.93645 -3.63089,4.81017 -5.63179,7.29335 -1.80559,1.93855 -4.29797,2.54587 -6.77854,3.06883 -2.59816,0.45242 -5.21631,0.76984 -7.82994,1.11294 -2.16814,0.46042 -4.306206,0.20816 -6.442947,-0.25091 l -8.344789,-13.23029 0,0 c 1.941978,0.59924 3.939843,1.01924 5.966482,0.60094 2.580197,-0.3407 5.164662,-0.65777 7.733445,-1.07934 2.127859,-0.39081 4.348919,-0.75485 5.920549,-2.39728 1.84901,-2.35901 2.73705,-5.25149 3.87239,-8.00191 1.0581,-3.04693 2.39782,-2.13208 4.12664,-4.87104 l 10.90229,8.6655 z"
       inkscape:connector-curvature="0"
       inkscape:transform-center-x="-10.490121"
       inkscape:transform-center-y="7.4396746"
       sodipodi:nodetypes="ccccccccccccccc" />
    <path
       inkscape:transform-center-y="-12.250987"
       inkscape:transform-center-x="3.0435568"
       inkscape:connector-curvature="0"
       d="m 93.443668,718.44524 c -3.00652,0.86683 -3.738181,0.88223 -6.804023,0.84003 -3.129625,0.0415 -6.233224,-0.0998 -9.24497,0.86638 -2.440645,0.98241 -3.913161,3.09504 -5.303985,5.22747 -1.369378,2.26838 -2.622313,4.60486 -3.897134,6.9277 -1.218705,1.86263 -1.772966,3.95774 -2.137161,6.12721 l 9.063568,12.6556 0,0 c 0.164132,-2.03831 0.513113,-4.06341 1.641217,-5.80889 1.260327,-2.2924 2.500579,-4.59746 3.830857,-6.8496 1.140093,-1.85035 2.289871,-3.79781 4.373092,-4.66936 2.842076,-0.86932 5.820168,-0.64335 8.758904,-0.70101 3.182177,0.12316 3.996247,-0.0466 7.142507,-0.66437 l -4.40892,-13.86751 z"
       id="path3035"
       style="fill:#000000"
       sodipodi:nodetypes="ccccccccccccccc" />
    <path
       sodipodi:nodetypes="ccsccccccccccc"
       inkscape:connector-curvature="0"
       d="m 140.09518,669.26598 c -2.32692,-3.07699 -8.81755,-10.80124 -11.22867,-13.82578 -1.84393,-2.52816 -3.72899,-5.07636 -5.0401,-7.88173 -0.85038,-1.81956 -1.55741,-3.69727 -2.3462,-5.54193 -2.01142,-5.21077 -4.21985,-10.31089 -7.01832,-15.18644 -1.88933,-2.88253 -3.31518,-5.64961 -12.56247,-10.78844 l -0.73098,12.4359 1.83334,3.07581 c 1.74118,2.93264 1.07564,2.26532 2.91951,5.14228 2.80522,4.79832 5.01024,9.84232 7.03037,14.97837 0.0744,0.18418 2.16923,5.38816 2.32162,5.71292 1.33871,2.85319 3.25764,5.45681 5.1716,8.00658 2.43646,3.06948 3.73402,4.53966 5.86611,7.78905 z"
       id="path3056"
       style="fill:#000000" />
    <path
       sodipodi:nodetypes="ccsccccccccccc"
       inkscape:connector-curvature="0"
       d="m 77.367288,640.07636 c -2.712804,2.70285 -13.422367,9.93764 -16.068631,12.71162 -2.240244,2.15628 -4.493464,4.35518 -7.099429,6.05287 -1.690241,1.10112 -3.462367,2.07612 -5.187926,3.12309 -4.909727,2.75244 -9.676008,5.67312 -14.119909,9.11535 -2.588896,2.25723 -5.028435,4.68784 -7.827893,6.67896 l 11.542855,6.6185 0,0 c 2.663525,-2.12527 5.011339,-4.61422 7.602072,-6.82754 4.365151,-3.43603 9.075528,-6.34436 13.908753,-9.09283 0.172832,-0.10073 5.062272,-2.9306 5.363846,-3.12771 2.649535,-1.73161 4.95314,-3.97135 7.203445,-6.19764 2.687282,-2.80525 4.039125,-3.6972 6.957109,-6.24391 z"
       id="path3058"
       style="fill:#000000" />
    <path
       style="fill:#000000"
       id="path3060"
       d="m 97.13021,615.75849 c -3.907649,1.38024 -15.901746,5.44624 -19.783646,6.91943 -3.188252,1.07016 -6.410524,2.17372 -9.70598,2.6701 -2.137435,0.32194 -4.286905,0.49382 -6.429658,0.75126 -5.981268,0.52342 -11.914598,1.26113 -17.813325,2.61259 -3.564883,1.01983 -7.078951,2.26101 -10.704446,2.94873 l 7.386767,10.85054 0,0 c 3.567168,-0.86736 7.025469,-2.20008 10.569664,-3.1786 5.822143,-1.37812 11.697055,-2.12734 17.604974,-2.67857 0.21249,-0.0217 6.214345,-0.62523 6.596048,-0.68327 3.353362,-0.50975 6.643345,-1.63064 9.876756,-2.76098 3.936087,-1.4852 8.017621,-2.07224 12.036976,-3.22401 z"
       inkscape:connector-curvature="0"
       sodipodi:nodetypes="ccsccccccccccc" />
    <g
       transform="matrix(0.97895701,0.20406655,-0.20406655,0.97895701,80.637823,582.04951)"
       style="font-size:40px;font-style:normal;font-weight:normal;line-height:125%;letter-spacing:0px;word-spacing:0px;fill:#000000;fill-opacity:1;stroke:none;font-family:Sans"
       id="flowRoot3062" />
    <g
       transform="matrix(0.97895701,0.20406655,-0.20406655,0.97895701,86.139853,502.58968)"
       style="font-size:40px;font-style:normal;font-weight:normal;line-height:125%;letter-spacing:0px;word-spacing:0px;fill:#000000;fill-opacity:1;stroke:none;font-family:Sans"
       id="flowRoot3062-5">
      <g
         id="g3129">
        <path
           inkscape:connector-curvature="0"
           id="path3071-3"
           style="font-size:64px;font-weight:bold"
           d="m 158.60302,113.13294 3.62983,6.38397 -5.37883,3.05833 c -1.3764,0.78264 -2.19208,1.58197 -2.44707,2.39793 -0.26528,0.79795 -0.0478,1.81266 0.65241,3.04413 l 1.20479,2.11893 8.31273,-4.72652 3.95421,6.95445 -8.31274,4.72651 13.34547,23.47124 -9.72536,5.52971 -13.34545,-23.47122 -4.83552,2.74939 -3.9542,-6.95443 4.83551,-2.74941 -1.2048,-2.11893 c -1.88441,-3.31419 -2.35092,-6.28428 -1.39954,-8.91026 0.94111,-2.64403 3.34948,-5.06788 7.22512,-7.27157 l 7.44344,-4.23225" />
        <path
           inkscape:connector-curvature="0"
           id="path3073-4"
           style="font-size:64px;font-weight:bold;fill:#000000"
           d="m 202.31039,118.25865 c -1.08083,-0.0261 -2.1114,0.0622 -3.09172,0.2649 -0.96965,0.17535 -1.90275,0.45981 -2.79933,0.85334 -2.63258,1.15553 -4.29164,2.8962 -4.97713,5.22199 -0.67485,2.29839 -0.32147,5.02138 1.06013,8.16898 l 6.48087,14.76531 -10.24415,4.49642 -14.067,-32.04871 10.24416,-4.49641 2.31098,5.26514 c 0.39523,-2.67614 1.23243,-4.86375 2.5116,-6.56283 1.28986,-1.72647 3.12707,-3.11305 5.51164,-4.15973 0.34337,-0.15071 0.72376,-0.29482 1.14112,-0.43259 0.40894,-0.15676 1.01596,-0.35479 1.82089,-0.59441 l 4.09794,9.2587" />
        <path
           inkscape:connector-curvature="0"
           id="path3075-8"
           style="font-size:64px;font-weight:bold;fill:#000000"
           d="m 227.22944,113.63661 c -2.47408,0.15868 -4.30872,1.17399 -5.50386,3.04593 -1.17568,1.84992 -1.6562,4.44848 -1.44157,7.79576 0.21461,3.34731 1.02381,5.8736 2.42751,7.57893 1.4231,1.68322 3.3717,2.4455 5.84583,2.28682 2.43249,-0.15587 4.2366,-1.15887 5.41229,-3.00877 1.17436,-1.87062 1.65418,-4.47959 1.43958,-7.82692 -0.21462,-3.34728 -1.02319,-5.86316 -2.42548,-7.54775 -1.40372,-1.70529 -3.3218,-2.47998 -5.7543,-2.324 m -0.51195,-7.98359 c 6.00848,-0.38524 10.80076,0.93572 14.37682,3.96303 3.59685,3.02605 5.57925,7.40817 5.94726,13.14637 0.36794,5.73821 -1.03854,10.33766 -4.21937,13.79828 -3.16013,3.45932 -7.74443,5.38165 -13.75288,5.76694 -6.0293,0.38667 -10.85278,-0.93239 -14.47041,-3.95707 -3.59686,-3.026 -5.57925,-7.40812 -5.94723,-13.14635 -0.36793,-5.73819 1.03846,-10.33762 4.21937,-13.79829 3.20166,-3.46198 7.81715,-5.38628 13.84645,-5.77294" />
        <path
           inkscape:connector-curvature="0"
           id="path3077-8"
           style="font-size:64px;font-weight:bold;fill:#000000"
           d="m 291.08097,122.23307 -3.06831,21.09049 -11.13279,-1.61964 0.49941,-3.43261 1.84905,-12.70995 c 0.43485,-2.98936 0.66271,-5.06148 0.68334,-6.21639 0.0413,-1.15186 -0.0641,-2.01982 -0.31592,-2.60385 -0.32799,-0.78453 -0.83457,-1.42665 -1.51973,-1.92637 -0.68226,-0.52028 -1.49751,-0.84941 -2.44583,-0.98742 -2.30906,-0.3359 -4.25376,0.29697 -5.83412,1.89863 -1.5774,1.58105 -2.59555,3.9487 -3.05441,7.10299 l -2.47895,17.03937 -11.07094,-1.61062 5.03883,-34.63538 11.07097,1.61061 -0.73784,5.0716 c 1.96383,-1.7774 3.95279,-3.00384 5.96686,-3.6793 2.01702,-0.69599 4.15945,-0.87904 6.42728,-0.54912 3.99949,0.58187 6.85164,2.24944 8.55639,5.00267 1.72529,2.75631 2.24753,6.47437 1.56674,11.15425" />
        <path
           inkscape:connector-curvature="0"
           id="path3079-6"
           style="font-size:64px;font-weight:bold;fill:#000000"
           d="m 316.18226,103.97604 -0.26211,9.93403 11.52722,0.30422 -0.21104,7.99723 -11.52724,-0.30422 -0.39156,14.8386 c -0.0431,1.62445 0.25075,2.73675 0.88103,3.33689 0.63075,0.57937 1.90414,0.89431 3.82016,0.94486 l 5.74799,0.1517 -0.21104,7.99723 -9.59043,-0.25305 c -4.41511,-0.11655 -7.52527,-1.11557 -9.33041,-2.99718 -1.7838,-1.90186 -2.61745,-5.06037 -2.50091,-9.47551 l 0.39156,-14.8386 -5.56055,-0.14677 0.21104,-7.99721 5.56057,0.14677 0.26211,-9.93405 11.18361,0.29516" />
        <path
           inkscape:connector-curvature="0"
           id="path3081-0"
           style="font-size:64px;font-weight:bold;fill:#000000"
           d="m 360.97273,122.67179 c -2.2303,0.68577 -3.79664,1.58154 -4.69899,2.68723 -0.88249,1.0996 -1.09717,2.3862 -0.64407,3.85975 0.41633,1.35413 1.192,2.28171 2.32688,2.78277 1.14868,0.47507 2.52951,0.46462 4.14249,-0.0314 2.01121,-0.61839 3.48343,-1.85572 4.41659,-3.71197 0.92702,-1.87614 1.05684,-3.8995 0.38946,-6.07005 l -0.37657,-1.22467 -5.55579,1.70831 m 15.09891,-9.05633 5.86886,19.08685 -10.78302,3.31559 -1.52462,-4.9584 c -0.80924,2.47201 -1.96603,4.4515 -3.47042,5.93849 -1.51055,1.46708 -3.55024,2.59555 -6.11902,3.38541 -3.46491,1.06539 -6.59184,0.92618 -9.3808,-0.41766 -2.77517,-1.36986 -4.65872,-3.66776 -5.65064,-6.89372 -1.20623,-3.92289 -0.74686,-7.21366 1.37814,-9.87229 2.14489,-2.66472 6.10475,-4.88493 11.8796,-6.6606 l 6.30254,-1.93792 -0.25717,-0.83635 c -0.52048,-1.6926 -1.56718,-2.7221 -3.14017,-3.08851 -1.57911,-0.38626 -3.7825,-0.14467 -6.61017,0.72475 -2.29002,0.70417 -4.35031,1.58834 -6.1809,2.65249 -1.83059,1.06419 -3.45136,2.31452 -4.86233,3.75096 l -2.50735,-8.15448 c 2.11858,-1.26167 4.28997,-2.38704 6.51419,-3.37614 2.21808,-1.00891 4.4821,-1.86854 6.79204,-2.57884 6.0337,-1.8552 10.75211,-1.9983 14.15526,-0.42922 3.41689,1.54311 5.94888,4.99298 7.596,10.3496" />
        <path
           inkscape:connector-curvature="0"
           id="path3083-7"
           style="font-size:64px;font-weight:bold;fill:#000000"
           d="m 427.05129,107.37978 0.50616,21.30649 -11.24682,0.26717 -0.0824,-3.46777 -0.30503,-12.84011 c -0.0718,-3.01996 -0.19411,-5.10098 -0.36708,-6.24304 -0.15216,-1.14253 -0.40133,-1.98059 -0.74741,-2.51423 -0.45473,-0.71853 -1.06167,-1.26677 -1.82083,-1.64471 -0.75972,-0.39871 -1.61858,-0.58669 -2.57663,-0.56393 -2.3327,0.0554 -4.14398,1.00498 -5.43388,2.8486 -1.29042,1.82284 -1.89777,4.32755 -1.82206,7.51413 l 0.40894,17.21391 -11.18435,0.26569 -0.83122,-34.990151 11.18434,-0.2657 0.12171,5.123575 c 1.63852,-2.081147 3.39406,-3.623271 5.26662,-4.626405 1.87202,-1.02387 3.95356,-1.56304 6.2446,-1.6175 4.04049,-0.096 7.13157,1.07055 9.27323,3.499504 2.16241,2.428528 3.29979,6.006707 3.41214,10.734507" />
        <path
           inkscape:connector-curvature="0"
           id="path3085-5"
           style="font-size:64px;font-weight:bold"
           d="m 462.50468,90.143851 -2.69635,9.564726 11.09866,3.128803 -2.17065,7.69988 -11.09866,-3.12878 -4.02757,14.28691 c -0.44093,1.56404 -0.42972,2.7144 0.0336,3.45109 0.46896,0.71663 1.62584,1.33497 3.47063,1.85502 l 5.53429,1.56015 -2.17065,7.69989 -9.23385,-2.60308 c -4.251,-1.19838 -7.02005,-2.9314 -8.30723,-5.19905 -1.26147,-2.28204 -1.29301,-5.54855 -0.0946,-9.79954 l 4.02757,-14.28691 -5.35382,-1.50927 2.17065,-7.699907 5.35382,1.50929 2.69634,-9.564726 10.76783,3.035504" />
      </g>
    </g>
  </g>
</svg>
