<?xml version="1.0" encoding="UTF-8" standalone="no"?>
<!-- Created with Inkscape (http://www.inkscape.org/) -->

<svg
   xmlns:dc="http://purl.org/dc/elements/1.1/"
   xmlns:cc="http://creativecommons.org/ns#"
   xmlns:rdf="http://www.w3.org/1999/02/22-rdf-syntax-ns#"
   xmlns:svg="http://www.w3.org/2000/svg"
   xmlns="http://www.w3.org/2000/svg"
   xmlns:sodipodi="http://sodipodi.sourceforge.net/DTD/sodipodi-0.dtd"
   xmlns:inkscape="http://www.inkscape.org/namespaces/inkscape"
   width="540"
   height="540"
   id="svg2"
   version="1.1"
   inkscape:version="0.48.3.1 r9886"
   sodipodi:docname="frontant_line.svg"
   inkscape:export-filename="/home/creek/frontant_line.png"
   inkscape:export-xdpi="90"
   inkscape:export-ydpi="90">
  <defs
     id="defs4" />
  <sodipodi:namedview
     id="base"
     pagecolor="#ffffff"
     bordercolor="#666666"
     borderopacity="1.0"
     inkscape:pageopacity="0.0"
     inkscape:pageshadow="2"
     inkscape:zoom="1.1231481"
     inkscape:cx="262.69972"
     inkscape:cy="297.0849"
     inkscape:document-units="px"
     inkscape:current-layer="flowRoot3062-5"
     showgrid="false"
     inkscape:window-width="1366"
     inkscape:window-height="719"
     inkscape:window-x="0"
     inkscape:window-y="29"
     inkscape:window-maximized="1"
     units="px" />
  <metadata
     id="metadata7">
    <rdf:RDF>
      <cc:Work
         rdf:about="">
        <dc:format>image/svg+xml</dc:format>
        <dc:type
           rdf:resource="http://purl.org/dc/dcmitype/StillImage" />
        <dc:title></dc:title>
      </cc:Work>
    </rdf:RDF>
  </metadata>
  <g
     inkscape:label="Layer 1"
     inkscape:groupmode="layer"
     id="layer1"
     transform="translate(0,-512.3598)">
    <path
       sodipodi:type="arc"
       style="fill:#000000"
       id="path2987"
       sodipodi:cx="278.57144"
       sodipodi:cy="446.64789"
       sodipodi:rx="54.285713"
       sodipodi:ry="44.285713"
       d="m 332.85715,446.64789 c 0,24.45832 -24.30454,44.28571 -54.28571,44.28571 -29.98117,0 -54.28571,-19.82739 -54.28571,-44.28571 0,-24.45833 24.30454,-44.28572 54.28571,-44.28572 29.98117,0 54.28571,19.82739 54.28571,44.28572 z"
       transform="matrix(0.91377748,0,0,0.8846659,-101.82773,327.78173)" />
    <path
       sodipodi:type="arc"
       style="fill:#000000"
       id="path2989"
       sodipodi:cx="392.85715"
       sodipodi:cy="491.64789"
       sodipodi:rx="68.571426"
       sodipodi:ry="53.57143"
       d="m 461.42857,491.64789 c 0,29.58668 -30.70047,53.57143 -68.57142,53.57143 -37.87096,0 -68.57143,-23.98475 -68.57143,-53.57143 0,-29.58669 30.70047,-53.57143 68.57143,-53.57143 37.87095,0 68.57142,23.98474 68.57142,53.57143 z"
       transform="matrix(1.1517404,0,0,0.8846659,-180.67061,329.95221)" />
    <path
       sodipodi:type="arc"
       style="fill:#000000"
       id="path2993"
       sodipodi:cx="552.85712"
       sodipodi:cy="551.64789"
       sodipodi:rx="95.714287"
       sodipodi:ry="62.142857"
       d="m 648.5714,551.64789 c 0,34.32055 -42.85274,62.14285 -95.71428,62.14285 -52.86154,0 -95.71429,-27.8223 -95.71429,-62.14285 0,-34.32055 42.85275,-62.14286 95.71429,-62.14286 52.86154,0 95.71428,27.82231 95.71428,62.14286 z"
       transform="matrix(0.91377748,0,0,0.8846659,-70.042674,308.49508)" />
    <path
       style="fill:#000000"
       id="path2999"
       d="m 190.55779,776.9596 c -4.6743,1.79499 -11.91204,3.85225 -16.61029,5.53652 -3.78371,1.51876 -7.6196,3.03246 -11.20322,5.19344 -2.32432,1.40162 -4.58024,2.95839 -6.87529,4.42677 -6.30164,4.28817 -12.67004,8.33016 -19.33308,11.74943 -4.13582,1.86954 -6.03164,2.03161 -10.05018,4.27172 l -10.04257,-11.19087 7.61519,-3.798 c 4.05627,-2.01923 9.98345,-3.49998 14.07628,-5.39299 6.60025,-3.33202 12.91604,-7.316 19.15877,-11.5184 0.22547,-0.14948 6.59091,-4.37632 7.00627,-4.6261 3.6491,-2.19444 7.56242,-3.74563 11.42391,-5.24229 4.75925,-1.71605 7.75326,-2.60573 12.41734,-4.71176 z"
       inkscape:connector-curvature="0"
       sodipodi:nodetypes="ccscccccccsccc" />
    <path
       inkscape:connector-curvature="0"
       d="m 203.14282,795.72038 c -4.02108,3.69568 -11.80727,8.57296 -15.91034,12.18402 -3.22127,3.04833 -6.50028,6.11624 -9.18131,9.62728 -1.73891,2.27726 -3.32609,4.65709 -4.99989,6.97856 -4.46459,6.59556 -9.12576,13.00918 -14.4171,19.02032 -3.4138,3.51287 -7.02981,6.83633 -10.12999,10.61535 l -11.90618,-9.016 3.2307,-4.46823 c 3.25312,-3.6056 8.89153,-8.26275 12.2479,-11.77615 5.26964,-5.90698 9.90492,-12.24636 14.35115,-18.74081 0.16177,-0.23259 4.72517,-6.80446 5.03626,-7.21081 2.73312,-3.56998 6.07477,-6.70582 9.38956,-9.77076 4.15126,-3.66651 8.67089,-5.40375 12.52194,-9.3633 z"
       id="path3001"
       style="fill:#000000"
       sodipodi:nodetypes="ccscccccccsccc" />
    <path
       inkscape:connector-curvature="0"
       d="m 142.99202,865.16961 c -0.98328,5.04347 -0.0762,0.43835 -1.15963,5.45961 -0.7438,4.10891 -1.51847,8.26406 -1.65013,12.44531 -0.0853,2.71197 -0.0125,5.42282 -0.03,8.13447 0.15549,7.54825 0.0814,15.05958 -0.63795,22.59382 -0.64696,4.57525 -1.53116,9.11073 -1.82399,13.72602 l -12.20464,-8.08074 0,0 c 0.48738,-4.56166 1.47376,-9.03714 2.07999,-13.58202 0.75624,-7.4412 0.8492,-14.88061 0.73137,-22.33998 -0.003,-0.26849 -0.0765,-7.85118 -0.0607,-8.33552 0.13884,-4.25524 0.92367,-8.49705 1.72501,-12.66906 1.0896,-5.09042 3.37733,-7.27502 4.10878,-12.43372 l 11.2294,8.26775 z"
       id="path3005"
       style="fill:#000000"
       sodipodi:nodetypes="ccccccccccscccc" />
    <path
       style="fill:#000000"
       id="path3007"
       d="m 123.23983,810.52966 c -2.10132,4.80069 -5.76012,8.85132 -7.95428,13.60939 -1.65594,3.92286 -3.35254,7.88524 -4.42648,12.00549 -0.69655,2.67239 -1.2382,5.37617 -1.86822,8.0622 -1.55443,7.5188 -3.3249,14.95388 -5.73136,22.27924 -1.66673,4.40526 -3.55634,8.72241 -4.88596,13.24009 l -10.103131,-10.51981 0,0 c 1.50766,-4.42454 3.483603,-8.66119 5.103648,-13.04473 2.421437,-7.22549 4.194123,-14.58535 5.765293,-22.00827 0.0584,-0.26681 1.70015,-7.80304 1.8251,-8.28019 1.09771,-4.19217 2.82381,-8.23844 4.55028,-12.21207 2.21586,-4.82541 5.05162,-7.85298 6.93284,-12.81963 z"
       inkscape:connector-curvature="0"
       inkscape:transform-center-x="-9.7904747"
       sodipodi:nodetypes="ccsccccccccccc" />
    <path
       inkscape:connector-curvature="0"
       d="m 332.75095,802.54935 c 2.96406,5.02418 8.05096,13.93726 10.91604,19.01043 2.46192,4.05419 4.93303,8.16934 7.9526,11.8691 1.9585,2.39966 4.04632,4.69065 6.06051,7.04373 5.7745,6.41132 11.33258,12.94707 16.37696,19.9421 2.89042,4.39087 6.04548,10.64671 9.25716,14.831 l -15.75771,1.17647 -1.79492,-3.9494 c -3.01154,-4.27047 -4.56908,-6.43671 -7.4703,-10.77364 -4.94445,-6.93977 -10.43318,-13.4263 -16.11021,-19.78653 -0.20285,-0.23019 -5.93612,-6.72668 -6.28543,-7.15563 -3.069,-3.76856 -5.5966,-7.96544 -8.05837,-12.11329 -2.91173,-5.13712 -3.65132,-8.12489 -6.90871,-13.07706 z"
       id="path3009"
       style="fill:#000000"
       sodipodi:nodetypes="ccsccccccccccc" />
    <path
       style="fill:#000000"
       id="path3011"
       d="m 312.29615,811.96112 c 1.52943,5.59328 5.39456,13.96516 6.81534,19.58111 1.30192,4.53087 2.59651,9.12292 4.53148,13.45016 1.25504,2.80666 2.66391,5.54048 3.98513,8.31598 3.87677,7.63361 7.51133,15.33359 10.52747,23.34945 1.62654,4.96293 3.00196,9.99281 4.99385,14.83611 l -15.8974,-2.71589 0,0 c -1.77558,-4.87674 -3.02168,-9.89168 -4.67299,-14.80517 -2.93425,-7.93758 -6.51487,-15.57272 -10.31103,-23.13269 -0.13486,-0.27296 -3.94915,-7.97863 -4.17273,-8.48013 -1.96447,-4.40604 -3.29195,-9.09114 -4.56883,-13.71248 -1.44886,-5.68938 -3.25757,-8.49297 -5.08961,-14.08971 z"
       inkscape:connector-curvature="0"
       inkscape:transform-center-x="-22.154376"
       sodipodi:nodetypes="ccsccccccccccc" />
    <path
       style="fill:#000000"
       id="path3013"
       d="m 382.62826,880.15756 c -1.78772,4.83191 -7.01641,16.07116 -8.8994,20.86592 -1.39988,3.94525 -2.83775,7.93147 -3.64476,12.04104 -0.52343,2.66549 -0.89042,5.35388 -1.34663,8.02936 -1.06859,7.47855 -2.35789,14.88579 -4.28827,22.21772 -1.37975,4.4205 -2.98736,8.76572 -4.02384,13.27953 l -10.7454,-9.83303 0,0 c 1.21994,-4.43129 2.91876,-8.70176 4.25336,-13.09846 1.95171,-7.23444 3.24803,-14.56777 4.33943,-21.9528 0.0411,-0.26554 1.19568,-7.76573 1.28972,-8.24169 0.8261,-4.18156 2.28802,-8.25184 3.75495,-12.25065 1.90033,-4.86214 2.86513,-5.92468 4.4228,-10.90861 z"
       inkscape:connector-curvature="0"
       inkscape:transform-center-x="-22.191736"
       sodipodi:nodetypes="ccsccccccccccc" />
    <path
       inkscape:transform-center-x="-22.191742"
       inkscape:connector-curvature="0"
       d="m 342.82132,896.49139 c -1.78773,4.8319 -6.20053,17.17699 -8.08354,21.97175 -1.39987,3.94524 -2.83773,7.93146 -3.64476,12.04105 -0.52342,2.66547 -0.8904,5.35388 -1.34662,8.02936 -1.06858,7.47854 -2.35789,14.88577 -4.28827,22.21771 -1.37975,4.4205 -2.98736,8.76572 -4.02384,13.27952 l -10.74539,-9.83301 0,0 c 1.21994,-4.4313 2.91875,-8.70176 4.25336,-13.09846 1.9517,-7.23444 3.24803,-14.56778 4.33942,-21.95281 0.0411,-0.26553 1.19567,-7.76572 1.28972,-8.24169 0.8261,-4.18156 2.28801,-8.25184 3.75495,-12.25065 1.90033,-4.86214 1.88608,-10.19003 3.44376,-15.17395 z"
       id="path3015"
       style="fill:#000000"
       sodipodi:nodetypes="ccsccccccccccc" />
    <path
       inkscape:transform-center-x="-17.640998"
       inkscape:connector-curvature="0"
       d="m 248.19037,816.26985 c -2.25078,4.90627 -3.52251,10.67251 -5.87421,15.53749 -1.77292,4.00793 -3.58969,8.05669 -4.73028,12.25289 -0.73978,2.72169 -1.31139,5.47204 -1.97894,8.20619 -1.64185,7.64928 -3.51843,15.21808 -6.08539,22.6885 -1.78178,4.49691 -3.80582,8.909 -5.22136,13.51303 l -13.85943,-3.88429 4.91842,-9.47584 c 1.60917,-4.51326 1.65041,-5.94118 3.38171,-10.41511 2.58377,-7.36952 4.46323,-14.86217 6.12376,-22.41464 0.0617,-0.27153 1.79821,-7.94023 1.93094,-8.42619 1.16594,-4.26956 3.01421,-8.40392 4.86331,-12.46469 2.37486,-4.93364 0.8981,-4.32312 2.90922,-9.39312 z"
       id="path3017"
       style="fill:#000000"
       inkscape:transform-center-y="11.802405"
       sodipodi:nodetypes="ccsccccccccccc" />
    <path
       inkscape:transform-center-y="7.7295064"
       style="fill:#000000"
       id="path3019"
       d="m 266.81242,818.4566 c -1.21133,5.23875 -4.11925,15.75935 -5.43791,20.97682 -0.92506,4.26703 -1.88485,8.58244 -2.1517,12.91382 -0.17308,2.80935 -0.17544,5.61481 -0.27516,8.42265 -0.0577,7.8125 -0.36178,15.59072 -1.36279,23.40379 -0.83454,4.74817 -0.56663,8.05672 -1.02032,12.84026 l -14.32597,-2.98582 0.20135,-6.41892 c 0.66196,-4.73137 1.70224,-6.73124 2.49193,-11.44728 1.03798,-7.71733 1.36038,-15.42144 1.45599,-23.14256 0.006,-0.27796 0.15192,-8.12751 0.18345,-8.62925 0.27684,-4.40811 1.25012,-8.81344 2.23917,-13.14677 1.32744,-5.28919 1.95577,-8.71605 2.89888,-14.06975 z"
       inkscape:connector-curvature="0"
       inkscape:transform-center-x="-19.282311"
       sodipodi:nodetypes="ccsccccccccccc" />
    <path
       style="fill:#000000"
       id="path3021"
       d="m 222.82091,893.69419 c 0.50094,5.10957 0.0764,9.20218 0.47476,14.31729 0.46316,4.14736 0.90989,8.34745 1.98187,12.39986 0.6953,2.62839 1.54228,5.21322 2.30281,7.82304 2.31293,7.21003 4.39476,14.44625 5.86314,21.87788 0.68985,4.56936 1.14038,9.16426 2.18193,13.67697 l -14.0415,-4.48453 0,0 c -0.83926,-4.51344 -1.17442,-9.07815 -1.89469,-13.60741 -1.40633,-7.35212 -3.44937,-14.52433 -5.70064,-21.65909 -0.0792,-0.25731 -2.32384,-7.52229 -2.44747,-7.99187 -1.08627,-4.12542 -1.54811,-8.41149 -1.97405,-12.63493 -0.41226,-5.18323 -1.02628,-7.77035 -0.49679,-13.08093 z"
       inkscape:connector-curvature="0"
       sodipodi:nodetypes="ccsccccccccccc" />
    <path
       inkscape:connector-curvature="0"
       d="m 255.88357,901.86036 c 0.50093,5.10956 0.62768,9.88267 1.02606,14.99777 0.46317,4.14738 0.90989,8.34746 1.98187,12.39986 0.6953,2.6284 1.54228,5.21322 2.30282,7.82304 2.31292,7.21004 4.39475,14.44627 5.86314,21.87789 0.68984,4.56936 1.14037,9.16426 2.18192,13.67697 l -14.0415,-4.48453 0,0 c -0.83926,-4.51344 -1.17442,-9.07815 -1.89468,-13.60741 -1.40634,-7.35213 -3.44938,-14.52433 -5.70064,-21.65909 -0.0792,-0.25731 -2.32384,-7.52229 -2.44747,-7.99186 -1.08628,-4.12543 -1.54812,-8.4115 -1.97405,-12.63494 -0.41227,-5.18323 -1.60899,-7.17911 -1.1157,-12.66683 z"
       id="path3023"
       style="fill:#000000"
       sodipodi:nodetypes="ccsccccccccccc" />
    <path
       style="fill:#000000"
       id="path3025"
       d="m 118.51206,689.22682 c -2.11173,-2.62931 -6.73122,-7.03095 -8.91936,-9.61545 -1.67341,-2.16033 -3.38414,-4.33779 -4.574,-6.73501 -0.77173,-1.55482 -1.41337,-3.15933 -2.12921,-4.73563 -1.82542,-4.45262 -3.82961,-8.81072 -6.36927,-12.97693 -1.714616,-2.46315 -5.108404,-4.4173 -13.269368,-5.78547 l 2.702515,12.19751 0.883778,-0.45603 c 1.580159,2.50597 0.258947,0.0158 1.932292,2.47418 2.545803,4.10022 4.546902,8.41036 6.380214,12.79916 0.06753,0.15737 1.968619,4.60422 2.106919,4.88173 1.21489,2.43808 2.95637,4.66287 4.69333,6.84169 2.21113,2.62288 5.31887,6.0511 7.25379,8.82772 z"
       inkscape:connector-curvature="0"
       sodipodi:nodetypes="ccsccccccccccc" />
    <path
       style="fill:#000000"
       id="path3033"
       d="m 119.32844,762.28041 c -1.90724,2.51504 -1.02502,3.20749 -2.11501,6.11476 -1.19071,2.93645 -3.63089,4.81017 -5.63179,7.29335 -1.80559,1.93855 -4.29797,2.54587 -6.77854,3.06883 -2.59816,0.45242 -5.21631,0.76984 -7.82994,1.11294 -2.16814,0.46042 -4.306206,0.20816 -6.442947,-0.25091 l -8.344789,-13.23029 0,0 c 1.941978,0.59924 3.939843,1.01924 5.966482,0.60094 2.580197,-0.3407 5.164662,-0.65777 7.733445,-1.07934 2.127859,-0.39081 4.348919,-0.75485 5.920549,-2.39728 1.84901,-2.35901 2.73705,-5.25149 3.87239,-8.00191 1.0581,-3.04693 2.39782,-2.13208 4.12664,-4.87104 l 10.90229,8.6655 z"
       inkscape:connector-curvature="0"
       inkscape:transform-center-x="-10.490121"
       inkscape:transform-center-y="7.4396746"
       sodipodi:nodetypes="ccccccccccccccc" />
    <path
       inkscape:transform-center-y="-12.250987"
       inkscape:transform-center-x="3.0435568"
       inkscape:connector-curvature="0"
       d="m 95.443668,728.44524 c -3.00652,0.86683 -3.738181,0.88223 -6.804023,0.84003 -3.129625,0.0415 -6.233224,-0.0998 -9.24497,0.86638 -2.440645,0.98241 -3.913161,3.09504 -5.303985,5.22747 -1.369378,2.26838 -2.622313,4.60486 -3.897134,6.9277 -1.218705,1.86263 -1.772966,3.95774 -2.137161,6.12721 l 9.063568,12.6556 0,0 c 0.164132,-2.03831 0.513113,-4.06341 1.641217,-5.80889 1.260327,-2.2924 2.500579,-4.59746 3.830857,-6.8496 1.140093,-1.85035 2.289871,-3.79781 4.373092,-4.66936 2.842076,-0.86932 5.820168,-0.64335 8.758904,-0.70101 3.182177,0.12316 3.996247,-0.0466 7.142507,-0.66437 l -4.40892,-13.86751 z"
       id="path3035"
       style="fill:#000000"
       sodipodi:nodetypes="ccccccccccccccc" />
    <path
       sodipodi:nodetypes="ccsccccccccccc"
       inkscape:connector-curvature="0"
       d="m 142.09518,679.26598 c -2.32692,-3.07699 -8.81755,-10.80124 -11.22867,-13.82578 -1.84393,-2.52816 -3.72899,-5.07636 -5.0401,-7.88173 -0.85038,-1.81956 -1.55741,-3.69727 -2.3462,-5.54193 -2.01142,-5.21077 -4.21985,-10.31089 -7.01832,-15.18644 -1.88933,-2.88253 -3.31518,-5.64961 -12.56247,-10.78844 l -0.73098,12.4359 1.83334,3.07581 c 1.74118,2.93264 1.07564,2.26532 2.91951,5.14228 2.80522,4.79832 5.01024,9.84232 7.03037,14.97837 0.0744,0.18418 2.16923,5.38816 2.32162,5.71292 1.33871,2.85319 3.25764,5.45681 5.1716,8.00658 2.43646,3.06948 3.73402,4.53966 5.86611,7.78905 z"
       id="path3056"
       style="fill:#000000" />
    <path
       sodipodi:nodetypes="ccsccccccccccc"
       inkscape:connector-curvature="0"
       d="m 79.367288,650.07636 c -2.712804,2.70285 -13.422367,9.93764 -16.068631,12.71162 -2.240244,2.15628 -4.493464,4.35518 -7.099429,6.05287 -1.690241,1.10112 -3.462367,2.07612 -5.187926,3.12309 -4.909727,2.75244 -9.676008,5.67312 -14.119909,9.11535 -2.588896,2.25723 -5.028435,4.68784 -7.827893,6.67896 l 11.542855,6.6185 0,0 c 2.663525,-2.12527 5.011339,-4.61422 7.602072,-6.82754 4.365151,-3.43603 9.075528,-6.34436 13.908753,-9.09283 0.172832,-0.10073 5.062272,-2.9306 5.363846,-3.12771 2.649535,-1.73161 4.95314,-3.97135 7.203445,-6.19764 2.687282,-2.80525 4.039125,-3.6972 6.957109,-6.24391 z"
       id="path3058"
       style="fill:#000000" />
    <path
       style="fill:#000000"
       id="path3060"
       d="m 99.13021,625.75849 c -3.907649,1.38024 -15.901746,5.44624 -19.783646,6.91943 -3.188252,1.07016 -6.410524,2.17372 -9.70598,2.6701 -2.137435,0.32194 -4.286905,0.49382 -6.429658,0.75126 -5.981268,0.52342 -11.914598,1.26113 -17.813325,2.61259 -3.564883,1.01983 -7.078951,2.26101 -10.704446,2.94873 l 7.386767,10.85054 0,0 c 3.567168,-0.86736 7.025469,-2.20008 10.569664,-3.1786 5.822143,-1.37812 11.697055,-2.12734 17.604974,-2.67857 0.21249,-0.0217 6.214345,-0.62523 6.596048,-0.68327 3.353362,-0.50975 6.643345,-1.63064 9.876756,-2.76098 3.936087,-1.4852 8.017621,-2.07224 12.036976,-3.22401 z"
       inkscape:connector-curvature="0"
       sodipodi:nodetypes="ccsccccccccccc" />
    <g
       transform="matrix(0.97895701,0.20406655,-0.20406655,0.97895701,80.637823,582.04951)"
       style="font-size:40px;font-style:normal;font-weight:normal;line-height:125%;letter-spacing:0px;word-spacing:0px;fill:#000000;fill-opacity:1;stroke:none;font-family:Sans"
       id="flowRoot3062" />
    <g
       transform="matrix(0.97895701,0.20406655,-0.20406655,0.97895701,86.139853,502.58968)"
       style="font-size:40px;font-style:normal;font-weight:normal;line-height:125%;letter-spacing:0px;word-spacing:0px;fill:#000000;fill-opacity:1;stroke:none;font-family:Sans"
       id="flowRoot3062-5">
      <path
         d="m 183.87478,84.175677 1.42497,7.204171 -6.06991,1.20061 c -1.55325,0.30727 -2.57984,0.80765 -3.07976,1.50112 -0.50398,0.67313 -0.61852,1.70454 -0.34363,3.09424 l 0.47297,2.391175 9.38076,-1.85549 1.55229,7.847947 -9.38076,1.85548 5.23902,26.48684 -10.97487,2.1708 -5.23901,-26.48684 -5.45678,1.07933 -1.5523,-7.84794 5.45677,-1.07933 -0.47296,-2.391177 c -0.73977,-3.740005 -0.2432,-6.705215 1.48972,-8.895645 1.72888,-2.21076 4.78011,-3.74871 9.15372,-4.61384 l 8.39976,-1.661451"
         style="font-size:64px;font-weight:bold"
         id="path3071-3"
         inkscape:connector-curvature="0" />
      <path
         d="m 218.6255,100.90698 c -1.04952,-0.2596 -2.07475,-0.3966 -3.07571,-0.41101 -0.98461,-0.0389 -1.95718,0.0368 -2.91771,0.22671 -2.82037,0.55789 -4.81707,1.89787 -5.99007,4.01993 -1.15665,2.09766 -1.40147,4.83256 -0.73445,8.20471 l 3.12886,15.81852 -10.97487,2.1708 -6.79132,-34.334792 10.97487,-2.17079 1.11572,5.640712 c 0.9655,-2.527012 2.25665,-4.481342 3.87347,-5.863022 1.63319,-1.4061 3.72712,-2.36182 6.28181,-2.86716 0.36785,-0.0727 0.77042,-0.13108 1.20771,-0.17516 0.43321,-0.0644 1.06869,-0.12637 1.9064,-0.18595 l 1.99524,9.926512"
         style="font-size:64px;font-weight:bold"
         id="path3073-4"
         inkscape:connector-curvature="0" />
      <path
         d="m 240.02244,94.253718 c -2.43207,0.48108 -4.11805,1.72775 -5.05794,3.740015 -0.92351,1.987834 -1.05984,4.626937 -0.409,7.917327 0.65083,3.29044 1.78362,5.68913 3.3984,7.1961 1.63114,1.48251 3.66275,1.98324 6.09481,1.50217 2.39116,-0.47295 4.04849,-1.70334 4.97202,-3.69116 0.91945,-2.00823 1.05377,-4.65756 0.40296,-7.94798 -0.65086,-3.290403 -1.78164,-5.678872 -3.39234,-7.165442 -1.61478,-1.50696 -3.61775,-2.02396 -6.00891,-1.55103 m -1.55231,-7.84795 c 5.90639,-1.168231 10.83032,-0.48569 14.77182,2.04763 3.96189,2.52935 6.5007,6.61435 7.61645,12.255042 1.11568,5.64072 0.3232,10.38466 -2.37744,14.23179 -2.68026,3.84311 -6.97357,6.3488 -12.87994,7.51706 -5.92686,1.17231 -10.88145,0.49583 -14.86379,-2.02944 -3.96192,-2.5293 -6.50073,-6.61432 -7.61644,-12.25504 -1.11572,-5.64069 -0.32325,-10.384607 2.37742,-14.231792 2.72111,-3.85117 7.04508,-6.36291 12.97192,-7.53525"
         style="font-size:64px;font-weight:bold"
         id="path3075-8"
         inkscape:connector-curvature="0" />
      <path
         d="m 302.63253,88.527428 4.13543,20.907422 -11.03619,2.18293 -0.67306,-3.40282 -2.49218,-12.599642 c -0.58617,-2.9634 -1.06191,-4.993 -1.42732,-6.08876 -0.34498,-1.09978 -0.73352,-1.88302 -1.16559,-2.34975 -0.5707,-0.63038 -1.26231,-1.06698 -2.07484,-1.3098 -0.81661,-0.26318 -1.69497,-0.30182 -2.63506,-0.11591 -2.28902,0.4528 -3.91166,1.69756 -4.86794,3.73429 -0.96035,2.01636 -1.13128,4.58798 -0.51277,7.71488 l 3.34109,16.891472 -10.97487,2.1708 -6.79132,-34.334783 10.97487,-2.17079 0.99444,5.02759 c 1.25926,-2.33027 2.72582,-4.1494 4.39968,-5.45742 1.66979,-1.32838 3.62875,-2.21493 5.87688,-2.65963 3.96481,-0.7842 7.20964,-0.16241 9.73446,1.86535 2.54519,2.02379 4.27662,5.35531 5.19429,9.994561"
         style="font-size:64px;font-weight:bold"
         id="path3077-8"
         inkscape:connector-curvature="0" />
      <path
         d="m 320.27404,60.955286 1.92825,9.74863 11.31209,-2.237491 1.55229,7.847952 -11.31208,2.23749 2.88024,14.561621 c 0.3153,1.59413 0.84633,2.61465 1.59309,3.06157 0.74269,0.42651 2.05415,0.45381 3.93442,0.0819 l 5.64071,-1.11572 1.5523,7.847952 -9.41141,1.86154 c -4.33273,0.85701 -7.58643,0.56614 -9.76107,-0.87257 -2.15828,-1.46317 -3.66592,-4.361133 -4.5229,-8.693862 l -2.88025,-14.561631 -5.45678,1.07933 -1.5523,-7.84795 5.45677,-1.07933 -1.92824,-9.74863 10.97487,-2.170791"
         style="font-size:64px;font-weight:bold"
         id="path3079-6"
         inkscape:connector-curvature="0" />
      <path
         d="m 359.38328,82.972577 c -2.289,0.45277 -3.93916,1.18267 -4.95046,2.18969 -0.99088,1.003011 -1.33675,2.260691 -1.0376,3.773051 0.27488,1.38975 0.95099,2.3922 2.02833,3.00733 1.09373,0.59067 2.46829,0.72229 4.12374,0.39485 2.06416,-0.40828 3.65581,-1.48763 4.77495,-3.23807 1.11506,-1.77083 1.45228,-3.770111 1.01168,-5.997791 l -0.24861,-1.25691 -5.70203,1.12785 m 15.95027,-7.45538 3.87469,19.589211 -11.06684,2.18899 -1.00657,-5.08891 c -1.05919,2.37567 -2.41344,4.22569 -4.0628,5.550075 -1.65343,1.30394 -3.79834,2.216644 -6.43475,2.738127 -3.55611,0.70338 -6.65214,0.2433 -9.2881,-1.380247 -2.61956,-1.648035 -4.25678,-4.127475 -4.91166,-7.438325 -0.79636,-4.02615 -9.5e-4,-7.252221 2.38617,-9.678201 2.40757,-2.43 6.57477,-4.23115 12.50163,-5.40349 l 6.46842,-1.27943 -0.16977,-0.85837 c -0.34364,-1.73714 -1.27891,-2.868838 -2.80586,-3.395079 -1.53102,-0.546623 -3.74758,-0.532934 -6.64966,0.04104 -2.35031,0.464911 -4.49061,1.132479 -6.42093,2.002719 -1.93034,0.87028 -3.6711,1.94727 -5.22233,3.23098 l -1.65538,-8.369107 c 2.23711,-1.03709 4.51273,-1.933175 6.82688,-2.688256 2.31009,-0.775453 4.65051,-1.397665 7.02125,-1.866617 6.1925,-1.224827 10.90062,-0.881858 14.12434,1.028906 3.24007,1.886356 5.40382,5.578339 6.49127,11.075964"
         style="font-size:64px;font-weight:bold"
         id="path3081-0"
         inkscape:connector-curvature="0" />
      <path
         d="m 419.86133,65.339951 4.13543,20.907437 -11.03619,2.18291 -0.67307,-3.402821 -2.49217,-12.59963 c -0.58618,-2.963401 -1.06191,-4.992996 -1.42732,-6.088773 -0.34498,-1.099768 -0.73352,-1.883016 -1.1656,-2.349733 -0.57069,-0.630389 -1.2623,-1.066989 -2.07483,-1.309803 -0.81661,-0.263187 -1.69497,-0.301819 -2.63508,-0.115904 -2.289,0.45279 -3.91164,1.697547 -4.86792,3.734286 -0.96035,2.016356 -1.13128,4.587983 -0.51277,7.714877 l 3.34109,16.891491 -10.97488,2.17079 -6.79131,-34.334791 10.97487,-2.170794 0.99444,5.027594 c 1.25925,-2.330271 2.72582,-4.149404 4.39968,-5.457425 1.66979,-1.328379 3.62875,-2.21493 5.87688,-2.659634 3.96481,-0.784198 7.20964,-0.162407 9.73445,1.865353 2.5452,2.0238 4.27663,5.355318 5.1943,9.994567"
         style="font-size:64px;font-weight:bold"
         id="path3083-7"
         inkscape:connector-curvature="0" />
      <path
         d="m 437.50284,37.767804 1.92825,9.748629 11.31209,-2.237495 1.55229,7.847953 -11.31209,2.237494 2.88025,14.561634 c 0.31529,1.594132 0.84633,2.614648 1.59309,3.061568 0.74268,0.42651 2.05415,0.45381 3.93441,0.0818 l 5.64072,-1.115706 1.5523,7.847956 -9.41141,1.86154 c -4.33274,0.857 -7.58643,0.56614 -9.76108,-0.87257 -2.15827,-1.46318 -3.66591,-4.36114 -4.5229,-8.693869 l -2.88024,-14.561632 -5.45678,1.079333 -1.5523,-7.847953 5.45677,-1.079333 -1.92824,-9.74863 10.97487,-2.170794"
         style="font-size:64px;font-weight:bold"
         id="path3085-5"
         inkscape:connector-curvature="0" />
      <text
         xml:space="preserve"
         style="font-size:40px;font-style:normal;font-weight:normal;line-height:125%;letter-spacing:0px;word-spacing:0px;fill:#000000;fill-opacity:1;stroke:none;font-family:Sans"
         x="315.1676"
         y="193.51768"
         id="text3013"
         sodipodi:linespacing="125%"
         transform="matrix(0.97895703,-0.20406655,0.20406655,0.97895703,-82.33346,27.142791)"><tspan
           sodipodi:role="line"
           id="tspan3015"
           x="315.1676"
           y="193.51768" /></text>
      <text
         xml:space="preserve"
         style="font-size:28px;font-style:normal;font-weight:normal;line-height:125%;letter-spacing:0px;word-spacing:0px;fill:#000000;fill-opacity:1;stroke:none;font-family:Sans"
         x="259.29172"
         y="197.20657"
         id="text3017"
         sodipodi:linespacing="125%"
         transform="matrix(0.97895702,-0.20406655,0.20406655,0.97895702,0,0)"><tspan
           sodipodi:role="line"
           id="tspan3019"
           x="259.29172"
           y="197.20657"
           style="font-size:24px;font-weight:bold;-inkscape-font-specification:Sans Bold">for front-end</tspan></text>
    </g>
  </g>
</svg>
